<?xml version="1.0" encoding="utf-8"?>
<!-- Generator: Adobe Illustrator 16.0.0, SVG Export Plug-In . SVG Version: 6.00 Build 0)  -->
<!DOCTYPE svg PUBLIC "-//W3C//DTD SVG 1.1//EN" "http://www.w3.org/Graphics/SVG/1.1/DTD/svg11.dtd">
<svg version="1.1" id="Layer_1" xmlns="http://www.w3.org/2000/svg" xmlns:xlink="http://www.w3.org/1999/xlink" x="0px" y="0px"
	 width="200px" height="200px" viewBox="0 0 200 200" style="enable-background:new 0 0 200 200;" fill="#02b3ef" xml:space="preserve">
<g>
	<g>
		<path d="M50.866,40.81c4.511-3.297,3.067-9.488-1.699-11.71c-6.989-3.258-16.828,0.867-22.832,4.425
			c-5.183,3.072-11.721,9.66-9.85,16.387c1.033,3.712,3.21,6.334,6.033,8.874c4.156,3.739,8.349,7.328,12.276,11.327
			c4.121,4.196,7.945,8.559,9.545,14.345c1.818,6.576-2.867,12.544-7.819,16.178c-3.71,2.722-8.194,4.195-12.666,5.049
			c-4.111,0.785-16.171,0.647-9.502-6.641c6.519-7.125,16.274-11.981,24.821-16.16c10.722-5.243,22.463-7.57,33.434-12.164
			c-0.487-0.835-0.973-1.671-1.459-2.507c-0.896,1.005-1.817,1.934-2.808,2.845c-1.427,1.312,0.7,3.428,2.121,2.121
			c0.991-0.911,1.913-1.839,2.808-2.845c0.893-1.003,0.044-3.136-1.459-2.507C62.196,71.854,51.86,73.9,42.333,78.135
			C32.872,82.34,23.765,87.34,15.7,93.873c-3.828,3.1-9.387,8.139-4.867,13.009c4.158,4.48,14.5,1.84,19.264,0.302
			c6.474-2.09,13.54-6.86,16.156-13.405c3.524-8.818-0.903-16.596-6.807-23.132c-3.584-3.968-7.489-7.718-11.518-11.231
			c-4.816-4.199-10.906-8.529-7.584-15.802c2.333-5.105,8.371-8.389,13.287-10.423c3.067-1.269,6.364-1.809,9.661-1.955
			c1.161-0.029,2.314,0.055,3.461,0.252c2.885,0.449,5.689,4.474,2.601,6.731C47.808,39.348,49.302,41.953,50.866,40.81
			L50.866,40.81z"/>
	</g>
</g>
</svg>
